/* XPM */
static char *graphic[] = {
/* width height num_colors chars_per_pixel */
"16 16 220 2", 
/* colors */
"   c None",
".  c None",
"X  c #423104",
"o  c None",
"O  c None",
"+  c #010005",
"@  c #D3AB21",
"#  c #D1D337",
"$  c #C27C02",
"%  c #408B00",
"&  c #8A7335",
"*  c #968A11",
"=  c #AD6401",
"-  c #94B51E",
";  c #3F5E02",
":  c #6D9F0A",
">  c #7B4A0E",
",  c #494C03",
"<  c #8B7F56",
"1  c #080505",
"2  c #A45D09",
"3  c None",
"4  c #C89B21",
"5  c #061500",
"6  c None",
"7  c #57690C",
"8  c #3F4202",
"9  c #6DD600",
"0  c #95CD17",
"q  c #925C00",
"w  c #5F4509",
"e  c #6E4006",
"r  c #427B01",
"t  c #372800",
"y  c #8F7610",
"u  c #C1CD2D",
"i  c #A97706",
"p  c #325C02",
"a  c #CDA326",
"s  c None",
"d  c #0F0A0C",
"f  c #DCD037",
"g  c #A36007",
"h  c #568609",
"j  c #0B1700",
"k  c #A5AA25",
"l  c #BB7300",
"z  c None",
"x  c #70C506",
"c  c #663C00",
"v  c #312205",
"b  c #A35801",
"n  c None",
"m  c #55AA00",
"M  c #B29D27",
"N  c #5AA504",
"B  c #83C80D",
"V  c #BEAD73",
"C  c #62C400",
"Z  c #8CCE11",
"A  c #579305",
"S  c #452C01",
"D  c #D3B826",
"F  c #BE7802",
"G  c #102600",
"H  c #C9991E",
"J  c #405909",
"K  c #678F0A",
"L  c #432B03",
"P  c #170D00",
"I  c #824601",
"U  c #FFF85C",
"Y  c #8F4400",
"T  c #D3B732",
"R  c #EACC32",
"E  c #4C2F03",
"W  c #D9CE32",
"Q  c #387A00",
"!  c #FDF24B",
"~  c #4B2500",
"^  c #355205",
"/  c #C69420",
"(  c #47381F",
")  c None",
"_  c #2F1900",
"`  c #CBA229",
"'  c #54690B",
"]  c #583604",
"[  c #B28C3F",
"{  c #000300",
"}  c #AC994B",
"|  c #212000",
" . c #4B3915",
".. c #954C00",
"X. c None",
"o. c #8A9D18",
"O. c #65C500",
"+. c #F2E340",
"@. c #CB9513",
"#. c None",
"$. c #DAB928",
"%. c #A1BC21",
"&. c #924D06",
"*. c None",
"=. c #51550C",
"-. c #181016",
";. c #CAB56A",
":. c #8F4D00",
">. c #54720A",
",. c #3E8000",
"<. c #625328",
"1. c None",
"2. c #7C4F0B",
"3. c #E0CA3C",
"4. c #A58E15",
"5. c #274F00",
"6. c #CEBF7A",
"7. c None",
"8. c #B4923D",
"9. c None",
"0. c #080800",
"q. c #BAAD76",
"w. c #8F8117",
"e. c #CEA21D",
"r. c #C19428",
"t. c #8A4D05",
"y. c #7B6D14",
"u. c #B3A63D",
"i. c #162800",
"p. c None",
"a. c #E6DD51",
"s. c #C1B02A",
"d. c None",
"f. c #766B35",
"g. c #8F6115",
"h. c #E8D635",
"j. c #352F33",
"k. c None",
"l. c #B0B521",
"z. c #99D918",
"x. c #74572D",
"c. c #B09E19",
"v. c #AC6800",
"b. c #132100",
"n. c #D7C856",
"m. c #8F845B",
"M. c #64A507",
"N. c #183200",
"B. c #B0E024",
"V. c #9E5905",
"C. c #B4B928",
"Z. c #834000",
"A. c #95C815",
"S. c #9E8621",
"D. c #5E8A06",
"F. c #163100",
"G. c #B77E09",
"H. c #5DB401",
"J. c #4D9300",
"K. c None",
"L. c #8EA915",
"P. c #190D00",
"I. c None",
"U. c None",
"Y. c #142501",
"T. c #BFC326",
"R. c #ACCD20",
"E. c #72C106",
"W. c #4F3D0A",
"Q. c #6D6350",
"!. c #5B9006",
"~. c #B6B226",
"^. c #281700",
"/. c #85580D",
"(. c #365502",
"). c #BFC92D",
"_. c #4EA400",
"`. c None",
"'. c #C18A0F",
"]. c #99D318",
"[. c #754E15",
"{. c #BA810A",
"}. c #285A00",
"|. c #F5E73E",
" X c #2C2604",
".X c None",
"XX c #BCC22C",
"oX c None",
"OX c #CBD02E",
"+X c #193200",
"@X c #180C04",
"#X c #479200",
"$X c #6F4A1E",
"%X c #9E5305",
"&X c None",
"*X c None",
"=X c None",
"-X c #000200",
";X c #D6C770",
":X c #57B100",
">X c #AB5A00",
",X c #8A7A63",
"<X c #9A4F00",
"1X c None",
"2X c #4A2D03",
"3X c #8A490B",
"4X c #000008",
"5X c #A0A620",
"6X c #211F01",
"7X c None",
"8X c #8EA517",
"9X c #321D04",
"0X c #1A0D00",
"qX c #335700",
"wX c #815904",
"eX c #54AA00",
"rX c #5A6A06",
"tX c #815D1F",
"yX c None",
"uX c #2E5502",
/* pixels */
"      1X) ,Xx.$X& q.oXn 9.      ",
"    &X6.[ 2 v.3XD |.U ;X. =X    ",
"  7.;.r.V.~ 8 D.B ].XX/ g.3     ",
"`.V ` &.P +X,.C 9 eXp X b tXX.  ",
"yX8.%X0XF.Q ).z._.*  X{ w 4 m.  ",
"Q.G.c N.h x R.%.rXwX0.Y.' f n.6 ",
"( $ , r u 0 o.J v ^.i.7 8X# 3.j.",
" .@.K O.A.- ; 6XP.b.w.C.M.~.@ -.",
"<.R Z E.k ^ ] F /.c.!.: % 4.{.4X",
"< ! B.m }.5 _ '.S.T.H.#X(.i q *X",
".Xa.W uXj { W.$.5X+.A 5.S l 2Xd.",
"k.} e.e -XG y.s.L.M =.| ..:.1 o ",
"  U.> = 2.>.N :XJ.qXt <XY 9Xz   ",
"    *.[.a h.OXl.y t.>XZ.L 1.    ",
"    =XI.f.u.T H g I E @X#.O     ",
"          K.7Xd + p.s O         "
};
