/* XPM */
static char *graphic[] = {
/* width height num_colors chars_per_pixel */
"32 32 783 2", 
/* colors */
"   c None",
".  c #764701",
"X  c #9A4D00",
"o  c #A15807",
"O  c #F2E645",
"+  c #B2951B",
"@  c #DCE338",
"#  c #040B00",
"$  c #575451",
"%  c #090F00",
"&  c None",
"*  c #CBA01F",
"=  c #221B11",
"-  c None",
";  c None",
":  c #4F460B",
">  c #AD6400",
",  c #E7E83C",
"<  c #C58A15",
"1  c #66C800",
"2  c #D09E1A",
"3  c None",
"4  c #A96B10",
"5  c None",
"6  c None",
"7  c #BD7E07",
"8  c None",
"9  c #A56800",
"0  c #3E7F00",
"q  c #6DD800",
"w  c #438300",
"e  c #C58F0E",
"r  c #855100",
"t  c None",
"y  c #BEB324",
"u  c #122B00",
"i  c #6A2401",
"p  c #90A81C",
"a  c #D4E335",
"s  c None",
"d  c #070505",
"f  c None",
"g  c #AA7609",
"h  c #A1600F",
"j  c #4A9300",
"k  c #458F00",
"l  c #BE8004",
"z  c #F9EB48",
"x  c #0D0F03",
"c  c #997310",
"v  c None",
"b  c #331F00",
"n  c #5B7209",
"m  c #D3A920",
"M  c #AB6A11",
"N  c None",
"B  c #DFC02E",
"V  c #738A12",
"C  c #A2710D",
"Z  c #8E470E",
"A  c #54A800",
"S  c #B67301",
"D  c None",
"F  c #B16F01",
"G  c #57AD00",
"H  c #C18101",
"J  c #010400",
"K  c #9D937E",
"L  c None",
"P  c #24221C",
"I  c None",
"U  c None",
"Y  c #04040A",
"T  c #C0AE39",
"R  c None",
"E  c #645809",
"W  c #08090B",
"Q  c None",
"!  c #0A1300",
"~  c #333F05",
"^  c None",
"/  c #B26E07",
"(  c #7C7012",
")  c #081400",
"_  c #563003",
"`  c #424209",
"'  c #BEA934",
"]  c None",
"[  c #E7DD40",
"{  c #E5D639",
"}  c #3A7200",
"|  c None",
" . c #D7C14F",
".. c None",
"X. c #CC9E1A",
"o. c None",
"O. c #FBF66B",
"+. c #D6AE21",
"@. c #7BD304",
"#. c #A26907",
"$. c #3E7D00",
"%. c #6ED102",
"&. c #5D730C",
"*. c #201501",
"=. c #1C0C03",
"-. c #142800",
";. c #418200",
":. c #F4EC42",
">. c None",
",. c #4D2A00",
"<. c #3C5B05",
"1. c #6E1100",
"2. c #E8D736",
"3. c #F4E63D",
"4. c #F5E946",
"5. c #9F8F21",
"6. c #3E6503",
"7. c #458D00",
"8. c #A36006",
"9. c #F2DE41",
"0. c #529A00",
"q. c None",
"w. c #6A8D0C",
"e. c #897D59",
"r. c #EEE041",
"t. c #7F2900",
"y. c #244700",
"u. c None",
"i. c #4B4536",
"p. c #A79E8E",
"a. c #6CD001",
"s. c #0F0800",
"d. c #846424",
"f. c None",
"g. c #EEDA3C",
"h. c #AC7108",
"j. c #7E4103",
"k. c #201E18",
"l. c #221B15",
"z. c #2B5700",
"x. c #7C3100",
"c. c #F8F24A",
"v. c #BA8F1D",
"b. c #192C01",
"n. c #DBBA29",
"m. c None",
"M. c #BFBD2A",
"N. c #100303",
"B. c #346600",
"V. c #B38618",
"C. c #000900",
"Z. c #7F7C73",
"A. c #254001",
"S. c #01040A",
"D. c #EEDE40",
"F. c #975100",
"G. c None",
"H. c #7D7133",
"J. c #864600",
"K. c #D4AB1F",
"L. c #599405",
"P. c None",
"I. c #A27513",
"U. c #B9871C",
"Y. c #6CCE00",
"T. c #67CA00",
"R. c #2D2F02",
"E. c #AE6E07",
"W. c #B48613",
"Q. c #6ACF00",
"!. c #B47000",
"~. c #C58B0E",
"^. c None",
"/. c #418000",
"(. c #666363",
"). c #3A5803",
"_. c #000105",
"`. c #B57B10",
"'. c #AF7312",
"]. c #6EDA00",
"[. c #C29E23",
"{. c None",
"}. c #183100",
"|. c #6CAD07",
" X c #0E2900",
".X c None",
"XX c #1B3600",
"oX c #F0EB4D",
"OX c #C8BA91",
"+X c #6C6C6C",
"@X c #C9B659",
"#X c #0B030A",
"$X c #624E0E",
"%X c #E3CD33",
"&X c #A99D57",
"*X c None",
"=X c #C38F1D",
"-X c #2F2F2F",
";X c #285000",
":X c #C69C24",
">X c #A36501",
",X c #9D6B0F",
"<X c #55AA00",
"1X c #214D00",
"2X c None",
"3X c #FBF54A",
"4X c #58AF00",
"5X c #BA7A01",
"6X c #6B5709",
"7X c None",
"8X c #63A906",
"9X c #6A5B12",
"0X c None",
"qX c #081000",
"wX c #68B804",
"eX c #86B30E",
"rX c #ECD539",
"tX c #0C0B0C",
"yX c #061100",
"uX c #0B1500",
"iX c #1B1012",
"pX c #9EA61A",
"aX c #62C400",
"sX c #E8D739",
"dX c #D6B82D",
"fX c #3B7400",
"gX c None",
"hX c #363104",
"jX c #AA6600",
"kX c #9D8A67",
"lX c #F1E342",
"zX c #CDC171",
"xX c #796E55",
"cX c #BA7800",
"vX c #8C5002",
"bX c #060607",
"nX c #3E3E3E",
"mX c #428400",
"MX c #C17D02",
"NX c #648808",
"BX c #A09151",
"VX c #935E00",
"CX c #BCD22C",
"ZX c #9B4D01",
"AX c #CDE533",
"SX c #6EAC09",
"DX c #4B9300",
"FX c #604F27",
"GX c #160700",
"HX c None",
"JX c #574B42",
"KX c #954705",
"LX c #CFAD27",
"PX c #6D6B11",
"IX c #E5CC35",
"UX c #C0A542",
"YX c #67770D",
"TX c #507607",
"RX c #55A800",
"EX c #7A6F15",
"WX c None",
"QX c #A19567",
"!X c #C48001",
"~X c #744808",
"^X c #020400",
"/X c #51AA00",
"(X c #2C5900",
")X c #495908",
"_X c #E8DFC0",
"`X c #534709",
"'X c #59B300",
"]X c #8B3B02",
"[X c #292002",
"{X c #A15500",
"}X c #D4B52B",
"|X c #D3C230",
" o c #A45A00",
".o c #F0EC45",
"Xo c #7ABE08",
"oo c #213E01",
"Oo c #091400",
"+o c #336900",
"@o c #040304",
"#o c #E5CA34",
"$o c None",
"%o c #070607",
"&o c None",
"*o c #B6B327",
"=o c None",
"-o c #332C06",
";o c #9D6A05",
":o c #BCCE2A",
">o c #452C03",
",o c #B0B627",
"<o c #704000",
"1o c #D7B023",
"2o c #162E00",
"3o c #68D900",
"4o c #80A70F",
"5o c #193300",
"6o c #D2B42A",
"7o c #EFDE3F",
"8o c None",
"9o c #E2C333",
"0o c #173400",
"qo c #CC9E20",
"wo c #FFFE4B",
"eo c #853305",
"ro c #AC6906",
"to c #DEBD2C",
"yo c #F3E648",
"uo c None",
"io c #2D2B03",
"po c #774F0B",
"ao c #B7841D",
"so c #9D5F08",
"do c #964B05",
"fo c #53A700",
"go c #8D5201",
"ho c #F4E643",
"jo c #468001",
"ko c #6AA806",
"lo c #2C5700",
"zo c #DCBA29",
"xo c #5BB000",
"co c #C29A24",
"vo c #914100",
"bo c #51A800",
"no c #488103",
"mo c #000300",
"Mo c #CFAF2B",
"No c None",
"Bo c #060D00",
"Vo c #64BF00",
"Co c #899718",
"Zo c #62C000",
"Ao c #020F00",
"So c #E8CD34",
"Do c #A8A071",
"Fo c None",
"Go c #BD8C1C",
"Ho c #C9BD29",
"Jo c #8D847D",
"Ko c #633100",
"Lo c #357300",
"Po c #A5B125",
"Io c #E3DC39",
"Uo c #BB7A00",
"Yo c #A05B0D",
"To c #193100",
"Ro c #383849",
"Eo c #988931",
"Wo c #F4EE4B",
"Qo c #F9F24B",
"!o c #E4D136",
"~o c #7E8112",
"^o c #3C8300",
"/o c #CAA325",
"(o c #DBB62C",
")o c #5B3D07",
"_o c #AFB522",
"`o c None",
"'o c #796515",
"]o c None",
"[o c None",
"{o c #692E01",
"}o c #90470C",
"|o c #625C56",
" O c #53A500",
".O c #7F5006",
"XO c #100A07",
"oO c #633101",
"OO c #56AA00",
"+O c #7C5604",
"@O c #A18F1E",
"#O c #2D5002",
"$O c #8C3B00",
"%O c #000100",
"&O c #BFBAB7",
"*O c None",
"=O c #EDDB3E",
"-O c #285700",
";O c #E6D037",
":O c None",
">O c #F4E847",
",O c #714603",
"<O c #346B00",
"1O c #DABD2D",
"2O c #66C900",
"3O c #472703",
"4O c #C99413",
"5O c #8B3B06",
"6O c #2C231F",
"7O c #B36F00",
"8O c #291A01",
"9O c #CAE32F",
"0O c #132500",
"qO c #482D03",
"wO c #C08407",
"eO c #020006",
"rO c #190A03",
"tO c #F0DE3D",
"yO c #3D1B00",
"uO c #AFA824",
"iO c #987415",
"pO c #B98012",
"aO c #0D0E01",
"sO c #553C05",
"dO c #839F13",
"fO c None",
"gO c #0D0708",
"hO c #234400",
"jO c #C7B345",
"kO c #9D6C0B",
"lO c #050508",
"zO c #E4CB33",
"xO c #CC9712",
"cO c #C2AD2C",
"vO c #322E2E",
"bO c #0E0500",
"nO c #121F01",
"mO c #D3AC22",
"MO c #B3C024",
"NO c #050300",
"BO c #944200",
"VO c #C1B79A",
"CO c #FEFD48",
"ZO c #BD8C1F",
"AO c #2D5900",
"SO c #C39C24",
"DO c #BE7D01",
"FO c None",
"GO c #C5AB32",
"HO c #61594D",
"JO c #4F453C",
"KO c #B69E3D",
"LO c #824F03",
"PO c #070F00",
"IO c #56B500",
"UO c #CBA726",
"YO c #7E776B",
"TO c #0A1400",
"RO c #3E3D36",
"EO c #EDD53B",
"WO c #BB891C",
"QO c #BE8105",
"!O c #3A7300",
"~O c #684203",
"^O c #BBCD28",
"/O c None",
"(O c #812B01",
")O c #AC6F10",
"_O c #936C13",
"`O c #3A5005",
"'O c #221501",
"]O c None",
"[O c #6DD700",
"{O c #BE8307",
"}O c #806337",
"|O c None",
" + c #9BB31A",
".+ c #BAB7AF",
"X+ c #448800",
"o+ c #1A3300",
"O+ c #C58809",
"++ c #341700",
"@+ c #644000",
"#+ c #693B04",
"$+ c #93CB14",
"%+ c #504305",
"&+ c #842E00",
"*+ c #3C7201",
"=+ c None",
"-+ c #CA9814",
";+ c #F0E243",
":+ c #929318",
">+ c #8F3C00",
",+ c #964F0E",
"<+ c #924100",
"1+ c #265400",
"2+ c #41382E",
"3+ c #C38708",
"4+ c #010300",
"5+ c #CEA824",
"6+ c #131400",
"7+ c #6CB904",
"8+ c #3B1A01",
"9+ c #B08218",
"0+ c #56B300",
"q+ c None",
"w+ c #66830D",
"e+ c #93C017",
"r+ c #8E5605",
"t+ c #31312D",
"y+ c #64C600",
"u+ c #908719",
"i+ c #67CB00",
"p+ c #CA9613",
"a+ c #010107",
"s+ c #3B2B1D",
"d+ c #67440C",
"f+ c #241403",
"g+ c #A67E1C",
"h+ c #CDAD3A",
"j+ c #5EC900",
"k+ c #74CF04",
"l+ c #442B03",
"z+ c #873301",
"x+ c #418100",
"c+ c #ADBF23",
"v+ c None",
"b+ c #4A8502",
"n+ c #A55E06",
"m+ c #6CDC00",
"M+ c #BC7C02",
"N+ c #183200",
"B+ c #2B1905",
"V+ c #F9F144",
"C+ c #CCA11E",
"Z+ c #711500",
"A+ c #B2AB26",
"S+ c #214100",
"D+ c None",
"F+ c #C89512",
"G+ c #DADB34",
"H+ c #F5EA48",
"J+ c #777474",
"K+ c #639D06",
"L+ c #140B00",
"P+ c #497405",
"I+ c #D6AD22",
"U+ c #5D7B09",
"Y+ c #6AA208",
"T+ c #57AA00",
"R+ c #285100",
"E+ c #50A700",
"W+ c None",
"Q+ c #F0E245",
"!+ c #C68A08",
"~+ c #4D7F05",
"^+ c #99BB17",
"/+ c #9F5407",
"(+ c #E4C532",
")+ c #D3B22B",
"_+ c #E0CD37",
"`+ c #B5760C",
"'+ c #A48F2B",
"]+ c #E3D237",
"[+ c #57B700",
"{+ c #000003",
"}+ c #FAF44E",
"|+ c #E2DAA3",
" @ c #F1ED3E",
".@ c #CD9913",
"X@ c #C89513",
"o@ c #AF6B00",
"O@ c #693300",
"+@ c #D3D835",
"@@ c #1F2802",
"#@ c #447902",
"$@ c #EBF643",
"%@ c #8F5400",
"&@ c #CDBF34",
"*@ c #BA7900",
"=@ c #794500",
"-@ c #6ED900",
";@ c #3F8000",
":@ c #D5C834",
">@ c #30281C",
",@ c #E0DC39",
"<@ c #ECDA3D",
"1@ c #183000",
"2@ c #8E9319",
"3@ c #6F673C",
"4@ c #956002",
"5@ c #040407",
"6@ c None",
"7@ c #52600B",
"8@ c #FFFE54",
"9@ c #572201",
"0@ c #B08F32",
"q@ c #C8B933",
"w@ c #703601",
"e@ c #160E06",
"r@ c #8D5B06",
"t@ c #6B9B0A",
"y@ c #9C5B13",
"u@ c #0C1C01",
"i@ c #833100",
"p@ c #B5A062",
"a@ c #CFBE35",
"s@ c #C4941D",
"d@ c #D6B329",
"f@ c #879714",
"g@ c #58AE00",
"h@ c #BA7901",
"j@ c #BF7D01",
"k@ c #A8780F",
"l@ c #C7BC8E",
"z@ c #F3E545",
"x@ c #2C5A00",
"c@ c #A05000",
"v@ c #847210",
"b@ c #9E5100",
"n@ c #59B400",
"m@ c #89A314",
"M@ c #988B3B",
"N@ c None",
"B@ c #B28211",
"V@ c #FFFE55",
"C@ c #65C800",
"Z@ c #294801",
"A@ c #3B7300",
"S@ c #110805",
"D@ c None",
"F@ c #5B7808",
"G@ c #90961E",
"H@ c #C8AD41",
"J@ c #B87509",
"K@ c #122400",
"L@ c #F7FA4E",
"P@ c #794300",
"I@ c #834B00",
"U@ c #204601",
"Y@ c #5F5E0B",
"T@ c #5C4203",
"R@ c #4D2500",
"E@ c #2E3404",
"W@ c #828212",
"Q@ c None",
"!@ c #772105",
"~@ c #8E771A",
"^@ c #574E45",
"/@ c None",
"(@ c #499300",
")@ c #C69212",
"_@ c #EAD53A",
"`@ c #82A015",
"'@ c #224300",
"]@ c #A95F01",
"[@ c #5C9606",
"{@ c #A0A61D",
"}@ c #030007",
"|@ c #55A700",
" # c #5BA602",
".# c #584807",
"X# c #75980E",
"o# c #2C4D02",
"O# c #D0A41B",
"+# c #BA7701",
"@# c None",
"## c #385604",
"$# c #2C5800",
"%# c #9C7D1B",
"&# c #2F5D00",
"*# c #C3AB44",
"=# c #A28E5D",
"-# c #6B7811",
";# c #030900",
":# c #4B2601",
"># c #060E00",
",# c #D6BA3D",
"<# c #091300",
"1# c None",
"2# c #EFDF40",
"3# c #FDF845",
"4# c #65C600",
"5# c #BDB527",
"6# c #E8DC40",
"7# c None",
"8# c #E5DB8B",
"9# c #BC7C07",
"0# c #B7851E",
"q# c #BD7A00",
"w# c #C27E00",
"e# c #87A618",
"r# c #428100",
"t# c #78D404",
"y# c #DFC338",
"u# c #232F02",
"i# c #E2C838",
"p# c #DCD356",
"a# c #162D00",
"s# c #B27B19",
"d# c #825000",
"f# c #0F2A00",
"g# c #438700",
"h# c #9F6402",
"j# c #7BD008",
"k# c #193200",
"l# c #BD7C02",
"z# c #142E00",
"x# c None",
"c# c #937315",
"v# c None",
"b# c #FBF44D",
"n# c #AEA726",
"m# c #FAF94B",
"M# c None",
"N# c #886A0E",
"B# c #8B3C05",
"V# c #8D430C",
"C# c #48453B",
"Z# c #B07816",
"A# c #180D0A",
"S# c #507307",
"D# c #7D580B",
"F# c #0F1D01",
"G# c #295100",
"H# c #275200",
"J# c #BBB09A",
"K# c #2C5600",
"L# c #56AB00",
"P# c #5FAF02",
"I# c #000200",
"U# c #994900",
"Y# c #5CB500",
"T# c #7AA70E",
"R# c #7F3C00",
"E# c #B2AFAC",
"W# c #040D00",
"Q# c #CDA11F",
"!# c #0C1600",
"~# c #8F4E00",
"^# c #746B12",
"/# c #B67B05",
"(# c #2A4A01",
")# c #140501",
"_# c #AB6700",
"`# c #D9ED38",
"'# c #5DA303",
"]# c #9B8F1B",
"[# c None",
"{# c #BB9933",
"}# c #863201",
"|# c #AFA722",
" $ c #613100",
".$ c #B99E1F",
"X$ c #B67500",
"o$ c #A26500",
"O$ c #1E1E22",
"+$ c #8C5600",
"@$ c #6FD900",
"#$ c #408000",
"$$ c #552A00",
"%$ c #438500",
"&$ c #823401",
"*$ c #DAB223",
"=$ c #6E7910",
"-$ c #783D04",
";$ c #803501",
":$ c #44392E",
">$ c #AC6606",
",$ c #1A3600",
"<$ c #492502",
"1$ c #0D0F01",
"2$ c #754E00",
"3$ c #8E801A",
"4$ c #569304",
"5$ c #E1C733",
"6$ c #CAA427",
"7$ c None",
"8$ c #BD8C12",
"9$ c #84DF0A",
"0$ c #F1DE43",
"q$ c #8B3400",
"w$ c #4A5806",
"e$ c #C28A0D",
"r$ c #53A400",
"t$ c #E6CD35",
"y$ c #AE6C01",
"u$ c #56A900",
"i$ c #484542",
"p$ c #B0BC24",
"a$ c None",
"s$ c None",
"d$ c #D5B939",
"f$ c #000000",
"g$ c #59AE00",
"h$ c None",
"j$ c #2D5A00",
"k$ c #C08508",
"l$ c #CFAC2B",
/* pixels */
"                  @#s$]ov+|oJX^@HOZ.FoD@7$2X                    ",
"                [#p.kX}O~X+$R#vXk@g+KOzX|+_XN@FO                ",
"            [o&Op@{#8$B#b@H !@,+I+UO7oV+3#O.8#.+No              ",
"          q.VOH@0#4 wO(O}#9#M qo(+%Xb#COwo3XQ+*#YO]O            ",
"        /@l@d$+.h eoy$~#,O%+w$U+T#e+CX,  @z@MoGoI.:$I           ",
"      q+OXh+U.pO/ i yOaOf#H#0 foaXa.Y.7+e#n#ao'.!+J.s+8o        ",
"    M#J#,#C+Z n+oOs.yX1@K#/.|@4#[O-@i+g@%$##`Xh.ZX&+r@JO6@      ",
"    E#UXWO)@>$9@f$<#}.z.x+A y+q @$T.g$g#&#XXuXb &$l e$d.(.      ",
"  |O=#mO)OKX{of$! 1@lo#$t@+@:o3oT.4XS#+ E !#^Xf$T@`+y@:Xe.WX    ",
"f Jo0@F+rox.bO<#To$#r# O4oc.`#j+G X+`O< )o^X%OBou@_OZO1O .+X8   ",
"*OxXB@{OS R@<#To$#;.u$C@VoG+.oE+b+&#E@J@8O%OBoK@S+7@9o=OyoQXf.  ",
"W+FX/#h@>X'O}.$#no8X1 k+t#_or.F@v.~ >oh#L+BoK@hOB.~+q@4.4.@XRo; ",
"=+sOj@5Xr+b.j$P+a@9O].A+@ 5#5.Z@d+.Ogo,.# K@A.3${@4$Poz lXjOi$N ",
"nX@+j@k$D#1+mX[@M.m#9$Y+Co-#(#,$qX)#GX;#@@hO6.cOuO #p 0$_@GO2+:O",
"t+2$3+-+( $.OO2OXo6#AX/X;@-O0o) mof$W#F#c#n w+y#SXY#`@i#B [.6O&o",
"vO+O.@1oG@r$1 %.j#MO&@^o)..#l+++8+3Oiooo9X|#:@,oP#u$V )+K.W.iXuo",
"RON#*$#oc+Zom+m@[ *o&.x@-oso!X_#j.~.2 W@#@=$2@K+OODXYX* X@g #X1#",
"$ ~@So;+a Q.-@wXX#TX(Xo+AoKo*@LOx V.zoy '#n@'XL#DX*+Y@4Ok$4@}@U ",
"..Eoho}+$@@.C@L#mXj$5oTOf$ $QOkO$XLX5$pXxoY#T+DXfXo#6XO+M+. eO`o",
"D+&XWo8@L@$+RXw AOk#TO^Xf$#+e X.5+IX{ eXY#T+j A@R+u##.l#q#<$S.^ ",
"s$DooXV@Qop$joAOk#TOJ I#C.poO#.$^#_+>OIo|.j !OG#u _ MXcXX$N.h$s ",
"*XK p#:.!o6o)XN+OoJ I#POnOiOn.HoNX|XH+9.dO} ;Xz#*.]XX w#<oY gX; ",
"  =oBXD.cos@,X% 4+I#PO0O: /ot$g.^+@OtOrXSO#O2o1$%@t.<+o@=.W |   ",
"    J+'+Q#p+o w@NO>#-.y.<.PXu+:+koL.EX'o` a#6+O@{XUob@$$tXHX;   ",
"    x#C#c /+vo+#-$hX'@+o7.E+IO[+<X(@Lo1X X[XP@c@1. oVXe@v L     ",
"      D >@I@DOdoYo9+]#w.0.T+0+bok <OU@R.~O;$U#7O>+F.f+a+G.&     ",
"        v#= ;o}oZ#d@}X]+,@^O +f@~ov@C E.F Z+$O> 9 rOlO7X5       ",
"          7#k.%#6$zO<@2.O ;OEO(o=XxO5Oz+!.BOi@=@S@5@7X6         ",
"            $o-XH.T sX3.2#dXtos#V#7 ]@q$jXd#qO@o_.P.3           ",
"              >.a$i.3@M@' l$m `.8.o$r :#B+XO{+Q@R -             ",
"                & s /Oo.O$P l.A#gOd bX%ofO0XQ 3                 ",
"                        t ] m.{..X^.u.L 8 &                     "
};
